<svg width="354" height="83" viewBox="0 0 354 83" fill="none" xmlns="http://www.w3.org/2000/svg">
<path d="M161.031 71.5929L160.908 71.5928C160.504 71.5924 160.177 71.2647 160.177 70.8609C160.178 70.4572 160.505 70.1303 160.909 70.1303C160.909 70.1303 160.909 70.1303 160.909 70.1303L161.031 70.1303C162.438 70.1303 163.863 70.1009 165.265 70.0426C165.67 70.0258 166.009 70.3395 166.026 70.743C166.043 71.1466 165.729 71.4872 165.326 71.5039C163.903 71.5629 162.458 71.5929 161.031 71.5929ZM155.062 71.4209C155.048 71.4209 155.034 71.4205 155.02 71.4196C153.557 71.3354 152.075 71.2188 150.615 71.0731C150.213 71.0329 149.92 70.6746 149.96 70.2728C150 69.8709 150.358 69.5775 150.76 69.6178C152.2 69.7615 153.661 69.8766 155.104 69.9596C155.507 69.9828 155.815 70.3284 155.792 70.7317C155.769 71.1205 155.447 71.4209 155.062 71.4209ZM171.129 71.0943C170.758 71.0943 170.44 70.8126 170.403 70.4353C170.363 70.0334 170.656 69.6753 171.058 69.6353C172.499 69.492 173.954 69.3151 175.382 69.1096C175.781 69.0522 176.152 69.3294 176.21 69.7292C176.267 70.1289 175.99 70.4997 175.59 70.5572C174.142 70.7658 172.665 70.9453 171.203 71.0907C171.178 71.093 171.154 71.0943 171.129 71.0943ZM144.887 70.3333C144.849 70.3333 144.811 70.3303 144.773 70.3243C143.324 70.0973 141.86 69.8366 140.423 69.5491C140.027 69.4699 139.77 69.0847 139.849 68.6886C139.929 68.2926 140.314 68.036 140.71 68.115C142.127 68.3984 143.57 68.6556 144.999 68.8794C145.398 68.9419 145.671 69.3161 145.608 69.715C145.552 70.0757 145.241 70.3333 144.887 70.3333ZM181.247 69.5596C180.907 69.5596 180.603 69.3213 180.532 68.9753C180.45 68.5797 180.705 68.1931 181.101 68.1118C182.521 67.8201 183.948 67.4927 185.345 67.1387C185.736 67.0392 186.134 67.2764 186.233 67.6678C186.332 68.0593 186.096 68.4571 185.704 68.5563C184.286 68.9158 182.837 69.2482 181.395 69.5444C181.346 69.5547 181.296 69.5596 181.247 69.5596ZM134.866 68.2556C134.805 68.2556 134.743 68.248 134.682 68.2321C133.26 67.8635 131.829 67.4599 130.429 67.0325C130.043 66.9146 129.825 66.5059 129.943 66.1196C130.061 65.7333 130.47 65.5157 130.856 65.6337C132.237 66.055 133.647 66.4529 135.049 66.8163C135.44 66.9176 135.674 67.3168 135.573 67.7076C135.488 68.0371 135.191 68.2556 134.866 68.2556ZM191.147 66.9665C190.837 66.9665 190.55 66.7688 190.45 66.4585C190.327 66.074 190.539 65.6621 190.923 65.5387C192.303 65.0959 193.686 64.6153 195.034 64.1103C195.413 63.9686 195.834 64.1605 195.976 64.5386C196.117 64.9168 195.926 65.3382 195.547 65.4799C194.177 65.9931 192.772 66.4814 191.37 66.9312C191.296 66.9552 191.221 66.9665 191.147 66.9665ZM125.1 65.1972C125.016 65.1972 124.93 65.1826 124.847 65.1517C123.468 64.6424 122.085 64.0969 120.736 63.5303C120.363 63.3739 120.188 62.9453 120.345 62.573C120.501 62.2005 120.93 62.0256 121.302 62.1819C122.631 62.7403 123.994 63.2779 125.353 63.7798C125.732 63.9198 125.926 64.3404 125.786 64.7192C125.677 65.0144 125.397 65.1972 125.1 65.1972ZM200.699 63.2982C200.42 63.2982 200.154 63.138 200.032 62.8674C199.866 62.4992 200.03 62.0661 200.398 61.9001C201.719 61.3046 203.038 60.6699 204.318 60.0137C204.677 59.8294 205.118 59.9714 205.302 60.3308C205.486 60.6902 205.344 61.1309 204.985 61.3151C203.683 61.9825 202.342 62.6279 200.999 63.2333C200.902 63.2775 200.8 63.2982 200.699 63.2982ZM115.696 61.1635C115.587 61.1635 115.477 61.1393 115.373 61.0882C114.053 60.4383 112.734 59.7516 111.453 59.047C111.099 58.8523 110.97 58.4076 111.164 58.0538C111.359 57.6999 111.804 57.5708 112.157 57.7654C113.419 58.4593 114.718 59.1358 116.019 59.7759C116.381 59.9541 116.531 60.3925 116.352 60.7549C116.225 61.0135 115.966 61.1635 115.696 61.1635ZM209.774 58.572C209.523 58.572 209.279 58.4427 209.142 58.2105C208.938 57.862 209.055 57.4141 209.403 57.2098C210.601 56.5077 211.821 55.7662 213.134 54.9427C213.476 54.728 213.927 54.8314 214.142 55.1735C214.356 55.5157 214.253 55.967 213.911 56.1816C212.586 57.013 211.353 57.762 210.143 58.4715C210.027 58.5396 209.9 58.572 209.774 58.572ZM106.77 56.1615C106.636 56.1615 106.501 56.1248 106.379 56.0477C105.135 55.259 103.898 54.4325 102.702 53.5911C102.372 53.3587 102.293 52.9025 102.525 52.5722C102.757 52.2418 103.213 52.1625 103.544 52.3949C104.721 53.2229 105.938 54.0363 107.162 54.8126C107.503 55.0289 107.604 55.4807 107.388 55.8218C107.249 56.0413 107.012 56.1615 106.77 56.1615ZM218.435 53.1165C218.198 53.1165 217.965 53.0014 217.825 52.7889C217.602 52.4523 217.694 51.9985 218.031 51.7755C219.263 50.9589 220.51 50.1221 221.674 49.3393C222.009 49.1139 222.463 49.2027 222.689 49.5379C222.914 49.873 222.825 50.3274 222.49 50.5529C221.324 51.3371 220.075 52.1758 218.838 52.9949C218.714 53.0771 218.574 53.1165 218.435 53.1165ZM314.724 50.4367C314.529 50.4367 314.335 50.3589 314.191 50.2052C313.214 49.1622 312.176 48.1406 311.107 47.1687C310.809 46.897 310.787 46.4345 311.058 46.1357C311.33 45.8368 311.792 45.8149 312.091 46.0866C313.189 47.0847 314.255 48.1341 315.258 49.2056C315.534 49.5004 315.519 49.9631 315.224 50.2391C315.083 50.3712 314.904 50.4367 314.724 50.4367ZM98.4512 50.2051C98.2901 50.2051 98.1279 50.1521 97.9927 50.0432C96.846 49.1188 95.7111 48.1559 94.6194 47.1814C94.3182 46.9124 94.2919 46.4501 94.5609 46.1489C94.8299 45.8476 95.2921 45.8213 95.5934 46.0903C96.6669 47.0485 97.7829 47.9954 98.9106 48.9045C99.225 49.158 99.2745 49.6184 99.021 49.9328C98.8765 50.1121 98.6648 50.2051 98.4512 50.2051ZM226.941 47.4179C226.705 47.4179 226.473 47.3033 226.332 47.0914C226.108 46.755 226.2 46.3011 226.536 46.0776C227.9 45.1707 229.105 44.3823 230.217 43.6676C230.557 43.4492 231.009 43.5478 231.228 43.8876C231.446 44.2273 231.347 44.6798 231.008 44.898C229.901 45.6086 228.704 46.3928 227.346 47.2955C227.221 47.3784 227.081 47.4179 226.941 47.4179ZM0.89313 45.1522C0.509945 45.1522 0.188042 44.8539 0.163983 44.4662C0.119961 43.7576 0.0976562 43.0358 0.0976562 42.3208C0.0976562 41.5484 0.123689 40.7636 0.175097 39.9881C0.201788 39.5852 0.551043 39.2801 0.953095 39.3068C1.3561 39.3335 1.66111 39.6818 1.63442 40.0848C1.5852 40.8283 1.56019 41.5806 1.56019 42.3208C1.56019 43.0057 1.58162 43.6971 1.62374 44.3757C1.64875 44.7788 1.34228 45.1258 0.9392 45.1509C0.923771 45.1518 0.90834 45.1522 0.89313 45.1522ZM307.074 43.6552C306.923 43.6552 306.771 43.6089 306.641 43.5127C305.489 42.6643 304.284 41.8445 303.059 41.0759C302.717 40.8613 302.613 40.4099 302.828 40.0679C303.043 39.7258 303.494 39.6224 303.836 39.837C305.092 40.6247 306.327 41.4652 307.508 42.3351C307.833 42.5746 307.903 43.0323 307.663 43.3575C307.52 43.5522 307.299 43.6552 307.074 43.6552ZM90.877 43.327C90.6878 43.327 90.4987 43.254 90.3556 43.1084C89.3817 42.1179 88.388 41.0707 87.3176 39.907C87.0442 39.6099 87.0634 39.1473 87.3607 38.8738C87.6578 38.6003 88.1205 38.6197 88.3939 38.9168C89.4532 40.0684 90.4361 41.1041 91.3985 42.083C91.6817 42.371 91.6776 42.834 91.3896 43.1172C91.2473 43.2572 91.0621 43.327 90.877 43.327ZM235.587 41.9346C235.338 41.9346 235.094 41.8065 234.958 41.5759C234.752 41.2283 234.867 40.7798 235.214 40.574C236.53 39.7952 237.822 39.0621 239.055 38.3955C239.411 38.2034 239.854 38.3358 240.047 38.6912C240.238 39.0465 240.106 39.4902 239.751 39.6822C238.534 40.3398 237.258 41.0633 235.959 41.8325C235.842 41.9017 235.714 41.9346 235.587 41.9346ZM298.348 38.3229C298.238 38.3229 298.127 38.298 298.022 38.2454C296.739 37.603 295.412 36.9962 294.078 36.4417C293.706 36.2866 293.529 35.8586 293.684 35.4857C293.839 35.1128 294.267 34.9361 294.64 35.0913C296.005 35.6588 297.363 36.28 298.676 36.9377C299.037 37.1184 299.184 37.5578 299.003 37.9189C298.875 38.1749 298.617 38.3229 298.348 38.3229ZM244.636 37.1592C244.358 37.1592 244.093 37 243.97 36.7308C243.803 36.3632 243.965 35.9296 244.333 35.7622C245.703 35.1382 247.078 34.5621 248.418 34.05C248.795 33.9057 249.218 34.0948 249.362 34.472C249.506 34.8493 249.317 35.272 248.94 35.4162C247.628 35.9175 246.282 36.4817 244.939 37.0933C244.841 37.138 244.738 37.1592 244.636 37.1592ZM83.9549 35.7803C83.7514 35.7803 83.549 35.6958 83.4044 35.5306C82.545 34.5487 81.6753 33.5459 80.8343 32.5761L80.522 32.2161C80.2574 31.911 80.2903 31.4491 80.5953 31.1845C80.9004 30.9198 81.3624 30.9527 81.6269 31.2578L81.9392 31.618C82.7791 32.5866 83.6476 33.5881 84.5048 34.5673C84.7709 34.8712 84.7402 35.3333 84.4362 35.5992C84.2976 35.7207 84.1259 35.7803 83.9549 35.7803ZM1.76926 34.9888C1.7142 34.9888 1.65833 34.9826 1.60239 34.9695C1.20911 34.8777 0.964722 34.4845 1.05657 34.0911C1.3931 32.6498 1.82126 31.2077 2.3292 29.8048C2.46675 29.425 2.88606 29.2286 3.26573 29.3662C3.64548 29.5037 3.84183 29.923 3.70442 30.3028C3.21593 31.6517 2.8043 33.0382 2.48079 34.4237C2.40203 34.7611 2.10141 34.9888 1.76926 34.9888ZM288.862 34.5033C288.79 34.5033 288.716 34.4925 288.644 34.4699C287.27 34.0418 285.863 33.6551 284.461 33.3207C284.068 33.2271 283.826 32.8326 283.92 32.4398C284.013 32.0469 284.407 31.8043 284.801 31.8981C286.235 32.2401 287.674 32.6357 289.079 33.0738C289.465 33.194 289.68 33.604 289.56 33.9895C289.462 34.3026 289.173 34.5033 288.862 34.5033ZM254.235 33.6426C253.913 33.6426 253.618 33.4286 253.529 33.1032C253.424 32.7134 253.653 32.3116 254.043 32.2056C255.459 31.8203 256.916 31.4836 258.371 31.205C258.767 31.1291 259.151 31.389 259.227 31.7858C259.303 32.1824 259.043 32.5655 258.646 32.6415C257.227 32.9131 255.808 33.2413 254.427 33.6169C254.363 33.6343 254.298 33.6426 254.235 33.6426ZM278.887 32.2436C278.853 32.2436 278.817 32.2412 278.782 32.236C277.354 32.0301 275.904 31.8714 274.471 31.7644C274.068 31.7344 273.766 31.3835 273.796 30.9807C273.827 30.578 274.176 30.2754 274.58 30.3059C276.046 30.4154 277.53 30.5777 278.991 30.7884C279.391 30.846 279.668 31.2169 279.61 31.6166C279.558 31.981 279.245 32.2436 278.887 32.2436ZM264.299 31.8414C263.925 31.8414 263.606 31.556 263.572 31.1761C263.535 30.7739 263.832 30.4183 264.234 30.3818C265.696 30.2492 267.187 30.1678 268.666 30.1401C268.671 30.1399 268.676 30.1399 268.68 30.1399C269.078 30.1399 269.404 30.4583 269.411 30.8575C269.419 31.2613 269.097 31.5948 268.694 31.6024C267.249 31.6295 265.793 31.7089 264.366 31.8384C264.343 31.8403 264.321 31.8414 264.299 31.8414ZM77.2221 28.0649C77.0205 28.0649 76.8198 27.982 76.6753 27.8195C75.6114 26.6226 74.6505 25.5644 73.7375 24.5845C73.4622 24.289 73.4786 23.8262 73.7741 23.551C74.0697 23.2757 74.5324 23.292 74.8076 23.5875C75.7284 24.5759 76.6968 25.6423 77.7684 26.8478C78.0367 27.1496 78.0095 27.6119 77.7076 27.8802C77.5684 28.004 77.3949 28.0649 77.2221 28.0649ZM5.42451 25.4604C5.30561 25.4604 5.18502 25.4314 5.07343 25.3701C4.71935 25.1758 4.58984 24.7313 4.78407 24.3772C5.49954 23.0732 6.29794 21.7987 7.15704 20.5893C7.3909 20.2601 7.84735 20.1827 8.17664 20.4166C8.50586 20.6505 8.58323 21.107 8.34937 21.4363C7.52289 22.5998 6.75469 23.826 6.06627 25.0807C5.93326 25.3232 5.68287 25.4604 5.42451 25.4604ZM70.1866 20.6339C70.0033 20.6339 69.8198 20.5654 69.6778 20.4278C68.5962 19.3799 67.5203 18.3906 66.4797 17.4873C66.1748 17.2225 66.1421 16.7606 66.4069 16.4557C66.6717 16.1507 67.1335 16.1181 67.4385 16.3829C68.499 17.3036 69.5948 18.3111 70.6955 19.3775C70.9855 19.6585 70.9928 20.1215 70.7118 20.4115C70.5684 20.5595 70.3776 20.6339 70.1866 20.6339ZM11.4993 17.2591C11.3147 17.2591 11.13 17.1896 10.9877 17.0503C10.6992 16.7676 10.6943 16.3047 10.977 16.0161C12.0225 14.9485 13.1387 13.9389 14.2948 13.0152C14.6103 12.763 15.0705 12.8146 15.3225 13.13C15.5746 13.4456 15.5233 13.9057 15.2077 14.1578C14.0979 15.0446 13.0261 16.014 12.0219 17.0394C11.8786 17.1857 11.6891 17.2591 11.4993 17.2591ZM62.3746 14.0405C62.2277 14.0405 62.0795 13.9964 61.9509 13.9047C60.7526 13.0508 59.5341 12.2592 58.329 11.5521C57.9807 11.3477 57.864 10.8997 58.0684 10.5513C58.2729 10.203 58.7209 10.0863 59.0692 10.2907C60.3113 11.0195 61.5664 11.8347 62.7997 12.7135C63.1286 12.9479 63.2052 13.4045 62.9709 13.7334C62.828 13.9337 62.603 14.0405 62.3746 14.0405ZM19.6018 11.0586C19.3458 11.0586 19.0973 10.9239 18.9632 10.6845C18.7659 10.3322 18.8915 9.88656 19.2438 9.68911C20.5312 8.96794 21.8842 8.31111 23.2653 7.73699C23.6382 7.58196 24.0662 7.75856 24.2213 8.13151C24.3763 8.50445 24.1997 8.93247 23.8268 9.08749C22.498 9.63989 21.1966 10.2716 19.9586 10.9652C19.8455 11.0285 19.7228 11.0586 19.6018 11.0586ZM53.4728 9.03784C53.3791 9.03784 53.2839 9.01978 53.192 8.98154C52.487 8.688 51.7668 8.41231 51.0513 8.16215C50.4241 7.94284 49.78 7.73809 49.1369 7.55344C48.7487 7.442 48.5243 7.03694 48.6357 6.64879C48.7472 6.26055 49.1522 6.03628 49.5404 6.14765C50.21 6.33983 50.8807 6.55314 51.534 6.78159C52.2761 7.04104 53.023 7.32696 53.7541 7.63125C54.127 7.78649 54.3033 8.21458 54.1482 8.58746C54.0312 8.86848 53.7593 9.03784 53.4728 9.03784ZM29.0955 7.31154C28.7677 7.31154 28.4695 7.0896 28.3866 6.75723C28.2887 6.36535 28.5271 5.96841 28.9189 5.87057C30.3566 5.51166 31.832 5.22822 33.3044 5.0283C33.7042 4.97382 34.073 5.25418 34.1274 5.65448C34.1818 6.0547 33.9014 6.42319 33.5012 6.47752C32.0817 6.67036 30.6591 6.94364 29.2732 7.28967C29.2137 7.30444 29.1541 7.31154 29.0955 7.31154ZM43.6129 6.41602C43.5829 6.41602 43.5525 6.4142 43.5219 6.4104C42.1096 6.23504 40.6651 6.13785 39.2282 6.12161C38.8244 6.11708 38.5007 5.78604 38.5053 5.38216C38.5098 4.97828 38.8419 4.65484 39.2448 4.65922C40.7361 4.67604 42.2358 4.77688 43.7021 4.95904C44.1029 5.00877 44.3875 5.37404 44.3377 5.77485C44.2917 6.14501 43.9766 6.41602 43.6129 6.41602Z" fill="#749DD3"/>
<path d="M353.902 36.6797L343.227 55.5874L341.517 58.617L339.192 55.5874L333.113 47.6699L353.902 36.6797Z" fill="#C8DEF4"/>
<path d="M353.899 36.6797L329.474 44.4632L320.324 39.0374L353.899 36.6797Z" fill="#2C447D"/>
<path d="M353.904 36.6797L333.116 47.6702L328.27 53.6755L329.479 44.4632L353.904 36.6797Z" fill="#262F5F"/>
<path d="M218.61 31.6361L216.772 43.0393L216.419 45.228C216.419 46.9225 212.798 69.246 210.923 69.246L181.271 48.7569L148.361 71.5903C146.487 71.5903 144.515 47.5681 144.515 45.8735L144.385 43.0393L143.859 31.6693L149.15 27.0976L179.155 1.16842C180.393 0.277194 182.148 0.277194 183.386 1.16842L213.363 27.0976L218.61 31.6361Z" fill="#211F44"/>
<path d="M204.38 31.5658V66.4404H157.926V21.4966H194.209L204.38 31.5658Z" fill="white"/>
<path d="M204.378 31.566V32.7423H193.031V21.4531L194.208 21.4968L204.378 31.566Z" fill="#2C447D"/>
<path d="M204.382 31.5658H194.211V21.4966L204.382 31.5658Z" fill="white"/>
<path d="M181.993 55.41L199 38.0617C203.466 33.5056 209.841 30.9023 216.532 30.9023C218.103 30.9023 219.377 31.9374 219.377 33.2142V56.8505V79.583C219.377 80.8598 217.253 82.7985 215.681 82.7985H206.018L181.993 58.2908C181.19 57.4712 181.19 56.2297 181.993 55.41Z" fill="#262F5F"/>
<path d="M180.548 55.3783L163.541 38.0299C159.075 33.4738 152.7 30.8706 146.009 30.8706C144.438 30.8706 143.164 31.9057 143.164 33.1825V56.8187V79.8294C143.164 81.1062 144.988 82.7985 146.559 82.7985L156.523 82.7668L180.548 58.2591C181.351 57.4395 181.351 56.198 180.548 55.3783Z" fill="#262F5F"/>
<path d="M219.376 70.092V80.0919C219.376 81.5865 217.856 82.7981 215.981 82.7981H146.559C144.684 82.7981 143.164 81.5865 143.164 80.0919V70.092L179.155 47.2412C179.74 46.8696 180.442 46.6731 181.15 46.653C181.938 46.6309 182.733 46.8274 183.385 47.2412L219.376 70.092Z" fill="#2C447D"/>
<path d="M143.164 65.9219L174.484 49.1929L175.097 49.8175L143.164 70.0921V65.9219Z" fill="#20284E"/>
<path d="M219.374 65.9219L188.054 49.1929L187.441 49.8175L219.374 70.0921V65.9219Z" fill="#20284E"/>
<path d="M181.154 36.2393C177.509 36.2393 174.555 39.194 174.555 42.8389H187.754C187.754 39.1941 184.799 36.2393 181.154 36.2393Z" fill="#C8DEF4"/>
<path d="M181.149 35.742C183.035 35.742 184.564 34.2131 184.564 32.3271C184.564 30.441 183.035 28.9121 181.149 28.9121C179.263 28.9121 177.734 30.441 177.734 32.3271C177.734 34.2131 179.263 35.742 181.149 35.742Z" fill="#C8DEF4"/>
</svg>
